<svg xmlns="http://www.w3.org/2000/svg" width="80" height="51.992" viewBox="0 0 80 51.992">
  <g id="ios-people" transform="translate(-2.461 -8.608)">
    <path id="Path_549" data-name="Path 549" d="M50.546,48.609c-2-.714-5.257-.748-6.7-1.3-1-.392-2.584-.819-3.1-1.444s-.518-5.079-.518-5.079a8.2,8.2,0,0,0,1.763-2.495,27.61,27.61,0,0,0,.855-4.9s1.177.5,1.64-1.854c.392-2.032,1.14-3.1.944-4.6-.214-1.5-1.033-1.14-1.033-1.14s1.033-1.514,1.033-6.664c0-5.309-4.009-10.529-11.51-10.529-7.483,0-11.528,5.238-11.528,10.529,0,5.15,1.015,6.664,1.015,6.664s-.837-.356-1.033,1.14c-.214,1.5.534,2.566.944,4.6.463,2.37,1.64,1.854,1.64,1.854a27.881,27.881,0,0,0,.855,4.9,8.237,8.237,0,0,0,1.763,2.495s0,4.454-.518,5.079-2.1,1.051-3.1,1.425c-1.425.552-4.687.623-6.7,1.336A12.574,12.574,0,0,0,9.1,60.6H58.683a12.552,12.552,0,0,0-8.142-11.991Z" transform="translate(8.5)" fill="#0a1931"/>
    <path id="Path_550" data-name="Path 550" d="M21.793,35.011s4.258-.144,5.95-1.658c-2.762-4.187-1.266-9.07-1.836-13.631-.57-4.543-3.154-7.27-8.32-7.27h-.071c-4.99,0-7.679,2.709-8.249,7.27C8.7,24.265,10.283,29.7,7.451,33.353c1.692,1.533,5.968,1.48,5.968,1.48s.178,2.566-.178,2.994a4.494,4.494,0,0,1-2.139.981,40.959,40.959,0,0,0-4.614,1.284A7.5,7.5,0,0,0,2.461,46.72H16.767c.392-1.425,3.083-3.973,5.7-5.309a11.961,11.961,0,0,1,4.4-.926s.677-1.07-1.551-1.478c0,0-3.065-.766-3.421-1.193-.338-.392-.107-2.8-.107-2.8Z" transform="translate(0 4.922)" fill="#0a1931"/>
    <path id="Path_551" data-name="Path 551" d="M32.4,35.011s-4.258-.144-5.95-1.658c2.762-4.187,1.266-9.07,1.836-13.631.57-4.543,3.154-7.27,8.32-7.27h.071c4.99,0,7.679,2.709,8.249,7.27.57,4.543-1.015,9.977,1.818,13.631-1.692,1.533-5.968,1.478-5.968,1.478s-.178,2.566.178,2.994a4.494,4.494,0,0,0,2.139.981,40.958,40.958,0,0,1,4.614,1.284,7.5,7.5,0,0,1,4.027,6.627H37.43c-.392-1.425-3.083-3.973-5.7-5.309a11.96,11.96,0,0,0-4.4-.926S26.65,39.413,28.878,39c0,0,3.065-.766,3.421-1.193.338-.392.107-2.8.107-2.8Z" transform="translate(30.725 4.922)" fill="#0a1931"/>
  </g>
</svg>
