<svg xmlns="http://www.w3.org/2000/svg" xmlns:xlink="http://www.w3.org/1999/xlink" width="50" height="50.034" viewBox="0 0 50 50.034">
  <defs>
    <filter id="home" x="0" y="0" width="50" height="50.034" filterUnits="userSpaceOnUse">
      <feOffset input="SourceAlpha"/>
      <feGaussianBlur stdDeviation="3" result="blur"/>
      <feFlood flood-color="#0a1931" flood-opacity="0.4"/>
      <feComposite operator="in" in2="blur"/>
      <feComposite in="SourceGraphic"/>
    </filter>
  </defs>
  <g id="Home-2" data-name="Home" transform="translate(-49 -751)">
    <rect id="Rectangle_80" data-name="Rectangle 80" width="32" height="32" transform="translate(58 760)" fill="#f1f2f6"/>
    <g transform="matrix(1, 0, 0, 1, 49, 751)" filter="url(#home)">
      <path id="home-3" data-name="home" d="M31.391,17.391A2,2,0,0,1,29.923,18a1.978,1.978,0,0,1-1.453-.593L28,16.938V30.032a1.947,1.947,0,0,1-.578,1.406A1.908,1.908,0,0,1,26,32.032H20v-9a1.015,1.015,0,0,0-1-1H13a1.015,1.015,0,0,0-1,1v9H6a1.908,1.908,0,0,1-1.422-.593A1.948,1.948,0,0,1,4,30.031V16.937l-.468.468A1.977,1.977,0,0,1,2.078,18,2,2,0,0,1,.609,17.39,2.006,2.006,0,0,1,0,15.921a1.971,1.971,0,0,1,.593-1.453L14.469.593A1.979,1.979,0,0,1,16,0a1.979,1.979,0,0,1,1.531.593L31.407,14.468A1.977,1.977,0,0,1,32,15.922a2,2,0,0,1-.609,1.469Z" transform="translate(9 9)" fill="#0a1931"/>
    </g>
  </g>
</svg>
