<svg xmlns="http://www.w3.org/2000/svg" width="35.079" height="32" viewBox="0 0 35.079 32">
  <g id="Patients" transform="translate(-135 -760)">
    <rect id="Rectangle_80" data-name="Rectangle 80" width="32" height="32" transform="translate(136 760)" fill="#f1f2f6"/>
    <g id="ios-people" transform="translate(132.539 756.463)">
      <path id="Path_549" data-name="Path 549" d="M27.273,26.148c-.875-.313-2.305-.328-2.938-.57a4.129,4.129,0,0,1-1.359-.633,8.386,8.386,0,0,1-.227-2.227,3.593,3.593,0,0,0,.773-1.094,12.107,12.107,0,0,0,.375-2.148s.516.219.719-.813c.172-.891.5-1.359.414-2.016s-.453-.5-.453-.5a5.851,5.851,0,0,0,.453-2.922,4.675,4.675,0,0,0-5.047-4.617,4.692,4.692,0,0,0-5.055,4.617,5.941,5.941,0,0,0,.445,2.922s-.367-.156-.453.5.234,1.125.414,2.016c.2,1.039.719.813.719.813a12.226,12.226,0,0,0,.375,2.148,3.612,3.612,0,0,0,.773,1.094,8.389,8.389,0,0,1-.227,2.227,3.989,3.989,0,0,1-1.359.625c-.625.242-2.055.273-2.938.586A5.514,5.514,0,0,0,9.1,31.406H30.841a5.5,5.5,0,0,0-3.57-5.258Z" fill="rgba(41,48,58,0.4)"/>
      <path id="Path_550" data-name="Path 550" d="M10.938,22.344a5.305,5.305,0,0,0,2.609-.727c-1.211-1.836-.555-3.977-.805-5.977a3.3,3.3,0,0,0-3.648-3.188H9.063A3.306,3.306,0,0,0,5.446,15.64c-.25,1.992.445,4.375-.8,5.977a4.908,4.908,0,0,0,2.617.649,3.966,3.966,0,0,1-.078,1.313,1.971,1.971,0,0,1-.938.43,17.96,17.96,0,0,0-2.023.563,3.291,3.291,0,0,0-1.766,2.906H8.734a5.616,5.616,0,0,1,2.5-2.328,5.245,5.245,0,0,1,1.93-.406s.3-.469-.68-.648a6.676,6.676,0,0,1-1.5-.523c-.148-.172-.047-1.227-.047-1.227Z" fill="rgba(41,48,58,0.4)"/>
      <path id="Path_551" data-name="Path 551" d="M29.063,22.344a5.305,5.305,0,0,1-2.609-.727c1.211-1.836.555-3.977.805-5.977a3.3,3.3,0,0,1,3.648-3.188h.031a3.306,3.306,0,0,1,3.617,3.188c.25,1.992-.445,4.375.8,5.977a4.9,4.9,0,0,1-2.617.648,3.966,3.966,0,0,0,.078,1.313,1.971,1.971,0,0,0,.938.43,17.96,17.96,0,0,1,2.023.563,3.291,3.291,0,0,1,1.766,2.906H31.267a5.616,5.616,0,0,0-2.5-2.328,5.245,5.245,0,0,0-1.93-.406s-.3-.469.68-.648a6.676,6.676,0,0,0,1.5-.523c.148-.172.047-1.227.047-1.227Z" fill="rgba(41,48,58,0.4)"/>
    </g>
  </g>
</svg>
